<svg xmlns:xlink="http://www.w3.org/1999/xlink" width="32" height="33" viewBox="0 0 32 33" fill="none" xmlns="http://www.w3.org/2000/svg" class="IconKabum" aria-label="KaBuM!" aria-hidden="true"><path fill-rule="evenodd" clip-rule="evenodd" d="M2.11523 27.7401C4.97704 18.7721 8.17402 9.95614 12.4281 3.24281C13.614 1.14014 15.986 1.31747 15.393 4.12947C15.0364 5.78685 14.545 7.41341 13.9234 8.99347C13.5367 10.2095 14.5422 10.9948 16.2954 9.42414C19.7564 6.26815 23.6968 3.66133 27.9747 1.69747C30.3208 0.861473 30.9396 3.01481 29.6505 4.02814C24.3652 7.75214 19.8017 11.9068 21.6065 19.5575C21.9932 21.7868 22.251 23.9655 21.9932 26.1695C21.0908 29.8428 17.4813 27.6641 17.2235 26.0681C16.6821 23.6361 16.1407 21.1788 15.3414 18.8228C14.7227 16.9735 13.3047 16.5935 11.7062 18.5441C10.3655 20.0641 9.15374 21.3815 8.25137 24.3708C6.52397 28.0188 4.40984 28.0695 2.11523 27.7401Z" fill="#2056A3"></path><path fill-rule="evenodd" clip-rule="evenodd" d="M19.9811 29.716C17.9959 29.716 15.9075 28.0947 15.5982 26.3213L15.5466 26.1693C15.0844 23.8417 14.4905 21.5413 13.7676 19.2787H13.7418C13.7089 19.1454 13.6568 19.0175 13.5872 18.8987L13.0199 19.456H12.9942C11.6793 20.9253 10.6738 22.0653 9.84875 24.7507L9.79719 24.8267V24.928C8.37917 27.9427 6.41974 29.336 3.63527 29.336C3.0477 29.3312 2.46145 29.2803 1.88209 29.184L0 28.9307L0.541424 27.2587C3.19698 18.9747 6.52286 9.52533 11.0089 2.45733C11.7824 1.08933 13.0457 0.253333 14.3864 0.253333C14.7741 0.251899 15.1578 0.330025 15.5129 0.482708C15.8681 0.635391 16.1869 0.859266 16.449 1.14C16.913 1.672 17.4029 2.66 17.042 4.35733C16.8357 5.35378 16.5779 6.34178 16.2685 7.32133C19.5765 4.48774 23.2738 2.12548 27.2516 0.304H27.3806C27.8908 0.110383 28.4321 0.00744837 28.979 0C30.2682 0 31.351 0.658667 31.7893 1.72267C32.2276 2.78667 31.8666 4.28133 30.7838 5.168H30.7064C24.8539 9.272 21.7601 12.8947 23.2554 19.2027V19.2533C23.6422 21.4573 23.9515 23.8133 23.6679 26.2453V26.4227C22.946 29.3867 20.703 29.64 20.0327 29.64" fill="#FFFFFF"></path><path fill-rule="evenodd" clip-rule="evenodd" d="M1.9707 27.5942C4.81266 18.8521 7.98745 10.2581 12.212 3.71379C13.3897 1.66407 15.7452 1.83694 15.1563 4.57813C14.8023 6.19376 14.3142 7.77937 13.697 9.31964C13.3129 10.505 14.3114 11.2706 16.0524 9.73946C19.4895 6.66295 23.4025 4.12177 27.6507 2.20737C29.9806 1.39242 30.5951 3.49153 29.3149 4.47935C24.0662 8.10957 19.5345 12.1596 21.3267 19.6176C21.7107 21.7908 21.9668 23.9146 21.7107 26.0631C20.8146 29.6439 17.2302 27.5201 16.9742 25.9643C16.4365 23.5936 15.8988 21.1981 15.1051 18.9015C14.4907 17.0987 13.0825 16.7283 11.4951 18.6298C10.1637 20.1115 8.96037 21.3957 8.06426 24.3097C6.34885 27.8659 4.24939 27.9153 1.9707 27.5942Z" fill="#175FAD"></path><path fill-rule="evenodd" clip-rule="evenodd" d="M19.4809 15.6696C19.6343 13.7919 20.2624 11.9884 21.3026 10.4387C22.8572 7.91079 25.2619 5.93354 27.6908 4.15652C27.9094 3.95629 28.1281 3.45572 27.9095 3.18041C27.6908 2.9051 27.1565 3.05527 26.8893 3.15538C25.1049 4.03355 23.3768 5.02837 21.7155 6.13377C19.7252 7.45865 17.8553 8.96651 16.1289 10.6389C15.6876 11.0794 15.1565 11.4129 14.5743 11.615C14.3151 11.7076 14.0378 11.7332 13.7668 11.6895C13.4957 11.6459 13.2392 11.5344 13.0198 11.3647C12.4368 10.9142 12.3639 10.1133 12.5826 9.46256V9.38747C13.1678 7.8713 13.6229 6.3052 13.9428 4.70715C14.0436 4.3407 14.0603 3.95509 13.9914 3.58086C13.9401 3.49446 13.8743 3.41818 13.797 3.35561C13.6612 3.35342 13.5272 3.38793 13.4084 3.45572C13.0713 3.67023 12.7948 3.97234 12.6068 4.33172C10.4693 7.86073 8.76904 11.6901 7.28736 15.4944C6.87444 16.6708 6.43722 17.8471 6 19.0234C9.54632 16.921 14.1614 15.9449 19.4809 15.6696Z" fill="#008BCC"></path><path d="M6 19.0234C6.43722 17.8485 6.87444 16.6736 7.28736 15.4987C8.76904 11.6989 10.4693 7.87415 12.6068 4.34938C12.7948 3.99043 13.0713 3.68869 13.4084 3.47443C13.5131 3.41546 13.6293 3.3813 13.7485 3.37444H13.797C13.8743 3.43694 13.9401 3.51313 13.9914 3.59942C14.0603 3.9732 14.0436 4.35835 13.9428 4.72435C13.6229 6.32048 13.1678 7.8847 12.5826 9.39905V9.47405C12.3639 10.124 12.4368 10.924 13.0198 11.3739C13.2946 11.6026 13.6379 11.7262 13.9914 11.7239C14.1889 11.7151 14.3847 11.6815 14.5743 11.6239C15.1565 11.422 15.6876 11.0889 16.1289 10.649C17.8553 8.9786 19.7252 7.47255 21.7155 6.14926C23.3768 5.04519 25.1049 4.05156 26.8893 3.17445C27.0829 3.0923 27.2878 3.04169 27.4965 3.02446C27.5737 3.01949 27.651 3.03266 27.7226 3.06298C27.7941 3.0933 27.858 3.13996 27.9095 3.19945C28.1281 3.47443 27.9094 3.9744 27.6908 4.17439C25.2619 5.94927 22.8572 7.92415 21.3026 10.449C20.2624 11.9969 19.6343 13.7982 19.4809 15.6737C14.1614 15.9486 9.54632 16.9236 6 19.0234" fill="#097BBB"></path><path fill-rule="evenodd" clip-rule="evenodd" d="M11.8075 31.9967C11.0083 31.9967 10.1833 31.4647 10.1833 30.4767C10.1059 28.3234 12.7873 27.1834 14.7725 26.3474L15.5975 25.9927C13.6381 24.3207 12.2974 23.0034 12.8388 21.7114C13.0709 21.2301 13.6381 20.6221 15.0819 20.6221H15.2366C16.1647 20.6727 17.5312 21.2807 18.7687 21.9901C19.0265 21.5594 19.5937 21.0781 20.8313 21.0781H20.986C22.7907 21.1287 26.1166 23.4341 26.9416 24.2447C27.7667 25.0554 27.7924 25.5114 27.6635 26.1954C27.3541 27.6901 25.472 28.6021 23.59 29.3874L23.3064 29.5141C21.0891 30.5781 19.4906 31.3127 18.5367 31.6421C18.3042 31.7208 18.0606 31.7635 17.8148 31.7687C17.4129 31.7828 17.0213 31.6425 16.7229 31.3777C16.4246 31.1129 16.2428 30.7443 16.2163 30.3501H16.1905C15.0303 30.8821 13.5607 31.5661 12.5552 31.9207H12.5294C12.2998 32.0097 12.0544 32.0528 11.8075 32.0474" fill="#FFFFFF"></path><path fill-rule="evenodd" clip-rule="evenodd" d="M25.611 25.2466C24.7903 24.3908 21.99 22.5029 20.8554 22.4777C17.8861 22.4022 22.328 25.6997 22.6659 26.2283C23.6557 27.2352 17.524 28.1665 17.6206 30.432C17.6528 30.7508 17.8459 30.8515 18.2 30.734C19.4311 30.281 21.7003 29.0979 22.5452 28.67C23.3901 28.242 27.1319 26.7821 25.611 25.2466ZM20.614 25.0201C19.7208 24.1139 16.7033 22.075 15.4721 22.0246C12.2614 21.9491 17.0412 25.5235 17.4275 26.0773C18.5138 27.1848 11.8752 28.1665 11.9717 30.6334C11.9717 30.9858 12.189 31.1116 12.5753 30.9606C13.9271 30.4572 16.3653 29.1734 17.2826 28.7455C18.2 28.3176 22.2314 26.6814 20.614 25.0201V25.0201Z" fill="#F05223"></path><path fill-rule="evenodd" clip-rule="evenodd" d="M14.9707 22.1039C15.0307 22.313 15.1338 22.5064 15.2732 22.6712C15.5654 23.0483 15.8857 23.4018 16.2312 23.7284C16.5841 24.0894 16.9623 24.3989 17.3657 24.7599C17.6252 24.9647 17.862 25.1982 18.0715 25.4561C18.2103 25.591 18.2917 25.7762 18.2984 25.9719V26.0234L18.7774 25.9203C19.5337 25.7398 20.2396 25.6109 20.9707 25.5077C20.9631 25.4001 20.9319 25.2955 20.8796 25.2018C20.8272 25.1081 20.755 25.0276 20.6682 24.9662C19.8615 24.141 16.7606 22.0523 15.6514 22.0265C15.4219 22.0139 15.1919 22.04 14.9707 22.1039" fill="#F26B21"></path><path fill-rule="evenodd" clip-rule="evenodd" d="M19.9707 23.067C20.0195 23.3115 20.8731 23.9699 21.0927 24.1204L22.0927 24.8353L22.4341 25.0234L24.9707 24.967C24.239 24.4214 21.5317 23.0481 20.5317 23.0293C20.3433 23.0147 20.153 23.0274 19.9707 23.067" fill="#F26B21"></path></svg>