<svg xmlns:xlink="http://www.w3.org/1999/xlink" width="24" height="18" viewBox="0 0 24 18" fill="none" xmlns="http://www.w3.org/2000/svg" class="IconSandwichRounded" aria-hidden="true"><path fill="#80B0D8" fill-rule="evenodd" clip-rule="evenodd" d="M0.288288 1.72414C0.192192 1.61686 0.12012 1.50575 0.0720721 1.3908C0.0240238 1.27586 0 1.14176 0 0.988506C0 0.850574 0.0240238 0.720307 0.0720721 0.597701C0.12012 0.475095 0.192192 0.367817 0.288288 0.275862C0.384385 0.183908 0.496496 0.114943 0.624625 0.0689655C0.752753 0.0229883 0.888888 0 1.03303 0H22.967C23.1111 0 23.2472 0.0229883 23.3754 0.0689655C23.5035 0.114943 23.6156 0.183908 23.7117 0.275862C23.8078 0.367817 23.8799 0.475095 23.9279 0.597701C23.976 0.720307 24 0.850574 24 0.988506C24 1.14176 23.976 1.27586 23.9279 1.3908C23.8799 1.50575 23.8078 1.61686 23.7117 1.72414C23.6156 1.81609 23.5035 1.88506 23.3754 1.93103C23.2472 1.97701 23.1111 2 22.967 2H1.03303C0.888888 2 0.752753 1.97701 0.624625 1.93103C0.496496 1.88506 0.384385 1.81609 0.288288 1.72414ZM0.288288 9.7242C0.192192 9.61692 0.12012 9.50581 0.0720721 9.39087C0.0240238 9.27593 0 9.14183 0 8.98857C0 8.85064 0.0240238 8.72037 0.0720721 8.59777C0.12012 8.47516 0.192192 8.36788 0.288288 8.27593C0.384385 8.18397 0.496496 8.11501 0.624625 8.06903C0.752753 8.02305 0.888888 8.00006 1.03303 8.00006H22.967C23.1111 8.00006 23.2472 8.02305 23.3754 8.06903C23.5035 8.11501 23.6156 8.18397 23.7117 8.27593C23.8078 8.36788 23.8799 8.47516 23.9279 8.59777C23.976 8.72037 24 8.85064 24 8.98857C24 9.14183 23.976 9.27593 23.9279 9.39087C23.8799 9.50581 23.8078 9.61692 23.7117 9.7242C23.6156 9.81616 23.5035 9.88512 23.3754 9.9311C23.2472 9.97708 23.1111 10.0001 22.967 10.0001H1.03303C0.888888 10.0001 0.752753 9.97708 0.624625 9.9311C0.496496 9.88512 0.384385 9.81616 0.288288 9.7242ZM0.0720721 17.3907C0.12012 17.5057 0.192192 17.6168 0.288288 17.7241C0.384385 17.816 0.496496 17.885 0.624625 17.9309C0.752753 17.9769 0.888888 17.9999 1.03303 17.9999H22.967C23.1111 17.9999 23.2472 17.9769 23.3754 17.9309C23.5035 17.885 23.6156 17.816 23.7117 17.7241C23.8078 17.6168 23.8799 17.5057 23.9279 17.3907C23.976 17.2758 24 17.1417 24 16.9884C24 16.8505 23.976 16.7202 23.9279 16.5976C23.8799 16.475 23.8078 16.3677 23.7117 16.2758C23.6156 16.1838 23.5035 16.1149 23.3754 16.0689C23.2472 16.0229 23.1111 15.9999 22.967 15.9999H1.03303C0.888888 15.9999 0.752753 16.0229 0.624625 16.0689C0.496496 16.1149 0.384385 16.1838 0.288288 16.2758C0.192192 16.3677 0.12012 16.475 0.0720721 16.5976C0.0240238 16.7202 0 16.8505 0 16.9884C0 17.1417 0.0240238 17.2758 0.0720721 17.3907Z"></path></svg>